<svg width="48" height="47" viewBox="0 0 48 47" fill="none" xmlns="http://www.w3.org/2000/svg">
<path d="M0 6C0 4.89543 0.895431 4 2 4H10C11.1046 4 12 4.89543 12 6V40C12 41.1046 11.1046 42 10 42H2C0.895431 42 0 41.1046 0 40V6Z" fill="white"/>
<path d="M16.548 24.1466C16.2318 23.7735 16.2318 23.2265 16.548 22.8534L31.4872 5.22821C32.0892 4.51789 33.25 4.94365 33.25 5.87479V41.1252C33.25 42.0564 32.0892 42.4821 31.4872 41.7718L16.548 24.1466Z" fill="white"/>
<circle cx="43.5" cy="23.5" r="4.5" fill="#FF7B42"/>
</svg>
